<?xml version="1.0" encoding="UTF-8" standalone="no"?>
<svg
   xmlns:osb="http://www.openswatchbook.org/uri/2009/osb"
   xmlns:dc="http://purl.org/dc/elements/1.1/"
   xmlns:cc="http://creativecommons.org/ns#"
   xmlns:rdf="http://www.w3.org/1999/02/22-rdf-syntax-ns#"
   xmlns:svg="http://www.w3.org/2000/svg"
   xmlns="http://www.w3.org/2000/svg"
   xmlns:sodipodi="http://sodipodi.sourceforge.net/DTD/sodipodi-0.dtd"
   xmlns:inkscape="http://www.inkscape.org/namespaces/inkscape"
   id="Lager_1"
   style="enable-background:new 0 0 100 100;"
   version="1.1"
   viewBox="0 0 100 100"
   xml:space="preserve"
   inkscape:version="0.91 r13725"
   sodipodi:docname="mine.svg"><metadata
     id="metadata3389"><rdf:RDF><cc:Work
         rdf:about=""><dc:format>image/svg+xml</dc:format><dc:type
           rdf:resource="http://purl.org/dc/dcmitype/StillImage" /></cc:Work></rdf:RDF></metadata><defs
     id="defs3387"><linearGradient
       inkscape:collect="always"
       id="linearGradient4193"
       osb:paint="gradient"><stop
         style="stop-color:#000000;stop-opacity:1;"
         offset="0"
         id="stop4195" /><stop
         style="stop-color:#000000;stop-opacity:0;"
         offset="1"
         id="stop4197" /></linearGradient></defs><sodipodi:namedview
     pagecolor="#ffffff"
     bordercolor="#666666"
     borderopacity="1"
     objecttolerance="10"
     gridtolerance="10"
     guidetolerance="10"
     inkscape:pageopacity="0"
     inkscape:pageshadow="2"
     inkscape:window-width="1600"
     inkscape:window-height="837"
     id="namedview3385"
     showgrid="false"
     inkscape:zoom="6.675088"
     inkscape:cx="41.802102"
     inkscape:cy="50.022395"
     inkscape:window-x="-8"
     inkscape:window-y="-8"
     inkscape:window-maximized="1"
     inkscape:current-layer="Lager_1" /><g
     id="g3375"><g
       id="g3377"><path
         d="M50,92c-1.2,0-2.2-0.6-2.8-1.6L41,79.7l-0.4-0.1c-3.7-1.1-7.2-2.9-10.3-5.2L29.9,74l-4.2,1.9    c-0.4,0.2-0.7,0.2-1,0.2c-0.2,0-0.5-0.1-0.7-0.3c-0.2-0.3-0.2-0.9,0.1-1.5l1.8-4l-0.4-0.5c-2.7-3.1-4.7-6.6-5.9-10.4l-0.1-0.4    L8.5,52.8c-1-0.6-1.6-1.6-1.6-2.8c0-1.2,0.6-2.2,1.6-2.8l10.9-6.3l0.1-0.4c1.3-3.8,3.3-7.4,5.9-10.5l0.4-0.5l-1.8-4    c-0.3-0.6-0.3-1.2-0.1-1.5c0.2-0.3,0.5-0.3,0.7-0.3c0.3,0,0.6,0.1,1,0.2l4.1,1.9l0.5-0.4c3.1-2.4,6.7-4.2,10.5-5.3l0.4-0.1    l6.1-10.6C47.8,8.6,48.8,8,50,8s2.2,0.6,2.8,1.6l6.1,10.6l0.4,0.1c3.8,1.1,7.3,2.9,10.5,5.3l0.5,0.4l4.1-1.9    c0.4-0.2,0.7-0.2,1-0.2c0.2,0,0.5,0.1,0.7,0.3c0.2,0.3,0.2,0.9-0.1,1.5l-1.8,4l0.4,0.5c2.7,3.1,4.7,6.6,5.9,10.5l0.1,0.4l10.9,6.3    c1,0.6,1.6,1.6,1.6,2.8c0,1.2-0.6,2.2-1.6,2.8l-10.9,6.3l-0.1,0.4c-1.3,3.8-3.3,7.3-5.9,10.4l-0.4,0.5l1.8,4    c0.3,0.6,0.3,1.2,0.1,1.5c-0.2,0.3-0.5,0.3-0.7,0.3l0,0c-0.3,0-0.6-0.1-1-0.2L70.1,74l-0.5,0.4c-3.1,2.4-6.6,4.1-10.3,5.2L59,79.7    l-6.2,10.7C52.2,91.4,51.2,92,50,92z M34.8,39.1c-0.7,0-1.3,0.4-1.6,1.1c-0.3,0.7-0.2,1.4,0.3,1.9l10.2,11.3l4.6,14.4    c0.2,0.7,0.9,1.2,1.7,1.2s1.5-0.5,1.7-1.2l4.7-14.5l10.1-11.2c0.5-0.5,0.6-1.3,0.3-1.9c-0.3-0.6-0.9-1.1-1.6-1.1    c-0.1,0-0.3,0-0.4,0L50,42.4l-14.8-3.2C35,39.2,34.9,39.1,34.8,39.1z"
         style="fill:#80E5E2;"
         id="path3379" /></g><g
       id="g3381"><path
         d="M50,9c0.4,0,1.3,0.1,1.9,1.1l5.9,10.3l0.4,0.7l0.8,0.2c3.7,1.1,7.1,2.8,10.1,5.1l0.9,0.7l1.1-0.5    l3.6-1.6c0.2-0.1,0.3-0.1,0.4-0.1c0,0.1-0.1,0.2-0.1,0.4l-1.5,3.4L73,29.8l0.8,1c2.6,3,4.5,6.4,5.8,10.2l0.2,0.7l0.7,0.4L91,48.1    c1,0.6,1.1,1.5,1.1,1.9S92,51.3,91,51.9L80.4,58l-0.7,0.4l-0.2,0.7c-1.2,3.7-3.2,7.1-5.7,10.1l-0.8,1l0.5,1.2l1.6,3.5    c0.1,0.2,0.1,0.3,0.1,0.4c-0.1,0-0.2-0.1-0.4-0.1l-3.7-1.7L70,72.9l-0.9,0.7c-3,2.3-6.4,4-10,5l-0.8,0.2l-0.4,0.7l-6,10.4    c-0.6,1-1.5,1.1-1.9,1.1s-1.3-0.1-1.9-1.1l-6-10.4l-0.4-0.7l-0.8-0.2c-3.6-1.1-7-2.8-10-5L30,72.9l-1.1,0.5L25.2,75    c-0.2,0.1-0.3,0.1-0.4,0.1c0-0.1,0.1-0.2,0.1-0.4l1.6-3.5l0.5-1.2l-0.8-1c-2.6-3-4.5-6.4-5.7-10.1l-0.2-0.7L19.6,58L9,51.9    c-1-0.6-1.1-1.5-1.1-1.9S8,48.7,9,48.1L19.5,42l0.7-0.4l0.2-0.7c1.2-3.7,3.2-7.1,5.8-10.2l0.8-1l-0.5-1.2L25,25.2    c-0.1-0.2-0.1-0.3-0.1-0.4c0.1,0,0.2,0.1,0.4,0.1l3.6,1.6l1.1,0.5l0.9-0.7c3-2.3,6.5-4,10.1-5.1l0.8-0.2l0.4-0.7l5.9-10.3    C48.7,9.1,49.6,9,50,9 M50,41.3l-14.6-3.1c-0.2,0-0.4-0.1-0.6-0.1c-1.1,0-2.1,0.7-2.5,1.7c-0.5,1-0.3,2.2,0.5,3l10,11.1l4.6,14.2    c0.4,1.2,1.4,1.9,2.7,1.9c1.2,0,2.3-0.8,2.7-1.9l4.6-14.2l10-11.1c0.7-0.8,0.9-2,0.5-3c-0.4-1-1.4-1.7-2.5-1.7    c-0.2,0-0.4,0-0.6,0.1L50,41.3 M50,7c-1.4,0-2.8,0.7-3.6,2.1l-5.9,10.3c-4,1.2-7.6,3-10.8,5.4L26,23.2c-0.5-0.2-1-0.3-1.4-0.3    c-1.5,0-2.3,1.4-1.5,3.2l1.5,3.4c-2.7,3.2-4.8,6.8-6.1,10.8L8,46.4C5.2,48,5.2,52,8,53.6l10.6,6.1c1.3,4,3.4,7.6,6.1,10.8L23.2,74    c-0.8,1.8,0,3.2,1.5,3.2c0.4,0,0.9-0.1,1.4-0.3l3.7-1.7c3.1,2.4,6.7,4.2,10.6,5.4l6,10.4c0.8,1.4,2.2,2.1,3.6,2.1s2.8-0.7,3.6-2.1    l6-10.4c3.9-1.2,7.5-3,10.6-5.4l3.7,1.7c0.5,0.2,1,0.3,1.4,0.3c1.5,0,2.3-1.4,1.5-3.2l-1.6-3.5c2.7-3.1,4.8-6.8,6.1-10.8L92,53.6    c2.8-1.6,2.8-5.7,0-7.3l-10.5-6.1c-1.3-4-3.4-7.7-6.1-10.8l1.5-3.4c0.8-1.8,0-3.2-1.5-3.2c-0.4,0-0.9,0.1-1.4,0.3l-3.6,1.6    c-3.2-2.4-6.8-4.3-10.8-5.4L53.6,9.1C52.8,7.7,51.4,7,50,7L50,7z M50,43.4c0.1,0,0.1,0,0.2,0L65,40.2c0.1,0,0.1,0,0.2,0    c0.6,0,1,0.8,0.6,1.3L55.6,52.8c-0.1,0.1-0.1,0.2-0.2,0.3l-4.7,14.5c-0.1,0.4-0.4,0.5-0.7,0.5s-0.6-0.2-0.7-0.5L44.6,53    c0-0.1-0.1-0.2-0.2-0.3L34.2,41.5c-0.5-0.5-0.1-1.3,0.6-1.3c0.1,0,0.1,0,0.2,0l14.9,3.2C49.9,43.3,49.9,43.4,50,43.4L50,43.4z"
         style="fill:#ebebeb;fill-opacity:1;stroke:none"
         id="path3383" /></g></g><path
     style="fill:#ffffff;stroke:none;stroke-opacity:0.67403316;fill-opacity:1"
     d="m 48.638929,90.190678 c -0.354727,-0.407839 -2.029152,-3.1385 -3.720946,-6.06814 l -3.075987,-5.326614 -3.05817,-1.137276 c -1.681994,-0.6255 -4.362484,-1.976483 -5.956644,-3.002182 l -2.898474,-1.864907 -2.305214,1.019475 c -1.267868,0.560712 -2.374423,1.019474 -2.459011,1.019474 -0.08459,0 0.322273,-1.076478 0.904136,-2.392173 l 1.057934,-2.392174 -1.64167,-2.162911 C 23.505089,65.274856 21.962072,62.568445 20.990374,60 20.300683,58.17697 20.005329,57.944331 14.265855,54.70339 9.0595817,51.763534 8.2450679,51.160475 8.1297926,50.160306 7.98257,48.882951 8.715218,48.330695 16.378726,43.942417 c 3.810628,-2.182042 3.895329,-2.265433 4.824385,-4.749705 0.520112,-1.390767 2.057527,-4.132608 3.416477,-6.092981 l 2.470819,-3.564313 -0.868745,-1.963941 c -0.477809,-1.080169 -0.791346,-2.041341 -0.696747,-2.13594 0.0946,-0.0946 1.133431,0.234197 2.308516,0.730656 l 2.136519,0.902653 1.858245,-1.274032 c 2.442212,-1.674405 5.655061,-3.279511 7.920413,-3.956956 2.077251,-0.621193 2.289247,-0.884625 6.030186,-7.493276 2.640134,-4.6639961 3.462823,-5.4944106 4.962731,-5.0093368 0.407839,0.131896 2.257433,2.9095758 4.110208,6.1726218 2.032288,3.579205 3.629216,5.937359 4.025424,5.944275 1.196051,0.02088 6.320271,2.417686 8.82694,4.128724 l 2.467606,1.684375 1.460759,-0.739821 c 0.803419,-0.406901 1.903593,-0.876609 2.44483,-1.043794 0.974772,-0.301101 0.977687,-0.291623 0.308403,1.002629 -1.571759,3.039449 -1.565509,3.162095 0.285542,5.602076 0.950521,1.252941 2.54878,3.998022 3.551687,6.100178 l 1.82347,3.822103 4.786123,2.709355 c 6.801152,3.850032 7.188169,4.150726 7.034432,5.465456 -0.10939,0.935526 -1.053521,1.646352 -6.039504,4.547094 -3.250411,1.891025 -6.056572,3.70725 -6.235911,4.036055 -0.179339,0.328809 -0.750881,1.630585 -1.270089,2.892831 -0.519212,1.26225 -1.960928,3.71236 -3.203822,5.44469 l -2.259801,3.149695 1.071089,2.339564 C 74.518008,73.880114 75,75.007958 75,75.099678 c 0,0.09172 -1.119864,-0.398547 -2.488585,-1.089475 l -2.488584,-1.256233 -1.430907,1.072577 c -1.868505,1.400593 -6.47875,3.735326 -8.673521,4.392466 -1.625102,0.486576 -1.91817,0.840207 -4.661017,5.62422 -1.609784,2.807746 -3.274403,5.55139 -3.699157,6.096983 -0.917199,1.178136 -2.029438,1.273559 -2.9193,0.250462 z m 3.204503,-20.974576 c 0.742301,-0.678373 1.727899,-3.034221 3.416733,-8.166937 l 2.373496,-7.213551 4.855627,-5.394114 c 2.670598,-2.966764 5.052602,-5.762158 5.293339,-6.211986 0.702068,-1.311824 0.512877,-2.350158 -0.622568,-3.416856 l -1.060284,-0.996082 -7.54447,1.557813 c -4.149458,0.856798 -8.046932,1.557814 -8.661055,1.557814 -0.614125,0 -4.226098,-0.675706 -8.026607,-1.50157 -3.800509,-0.825864 -7.336629,-1.39487 -7.858046,-1.264458 -1.406528,0.351786 -2.462179,2.17002 -1.982389,3.414429 0.213426,0.55355 2.697742,3.550865 5.520705,6.660701 l 5.132658,5.654246 2.394857,7.481784 c 1.76432,5.511919 2.641138,7.654284 3.330267,8.13697 1.287496,0.901792 2.212453,0.821559 3.437737,-0.298203 z"
     id="path3391"
     inkscape:connector-curvature="0" /></svg>